<?xml version="1.0" standalone="no"?>
<!DOCTYPE svg PUBLIC "-//W3C//DTD SVG 1.0//EN" "http://www.w3.org/TR/2001/REC-SVG-20010904/DTD/svg10.dtd">
<svg xmlns="http://www.w3.org/2000/svg" xmlns:xlink="http://www.w3.org/1999/xlink" id="body_1" width="30" height="15">

<g transform="matrix(0.029296875 0 0 0.04109589 0 0)">
    <path d="M352.62112 76.248024C 347.35983 76.248024 343.09378 80.51408 343.09378 85.77536L343.09378 85.77536L343.09378 219.63866C 343.09378 224.8954 347.35983 229.1621 352.62112 229.1621L352.62112 229.1621L382.89066 229.1621C 400.06482 229.1621 415.64386 227.37654 425.64847 224.25975C 432.84982 222.02893 440.1004 217.31242 448.46487 209.40233C 455.5481 202.7144 461.11804 194.33192 465.01175 184.48631C 469.03723 174.29541 471.00003 163.5463 471.00003 151.62889C 471.00003 134.99994 467.4982 120.69275 460.28323 107.912094C 453.73615 96.28999 445.08896 88.0255 433.04886 81.88279C 421.99014 76.24893 405.5472 76.24802 384.7383 76.24802L384.7383 76.24802L352.62112 76.24802L352.62112 76.248024zM923.5293 76.248024C 921.41205 76.248024 919.68945 77.964134 919.68945 80.085915L919.68945 80.085915L919.68945 225.32227C 919.68945 227.44405 921.41205 229.16602 923.5293 229.16602L923.5293 229.16602L996.1465 229.16602C 998.25916 229.16602 999.99994 227.44405 999.99994 225.32227L999.99994 225.32227L999.99994 208.24219C 999.99994 206.11133 998.25916 204.39453 996.1465 204.39453L996.1465 204.39453L948.7324 204.39453L948.7324 80.08593C 948.7324 77.96415 947.0053 76.24804 944.8926 76.24804L944.8926 76.24804L923.5293 76.24804zM372.14062 101.019516L386.77344 101.019516C 406.2193 101.019516 419.54584 104.84039 427.5332 112.70506C 437.02896 122.05998 441.63672 134.57605 441.63672 150.96873C 441.63672 161.98654 439.53333 172.03633 435.73047 179.25584C 431.14615 187.91107 425.85782 193.94983 420.4375 196.71678C 412.98175 200.51054 403.5942 204.3945 390.51367 204.3945L390.51367 204.3945L372.14062 204.3945L372.14062 101.01951zM551.0703 108.54491C 533.8144 108.54491 519.8531 114.24606 508.4082 125.97265C 496.95422 137.71288 491.39258 152.05746 491.39258 169.82227C 491.39258 187.16 496.96802 201.18942 508.4629 212.70703C 519.9396 224.22462 534.4008 229.81836 552.6699 229.81836C 564.41016 229.81836 574.58856 227.75517 582.9121 223.69336C 589.9272 220.2767 596.1548 215.32043 601.44336 208.95508C 602.20667 208.03731 602.4927 206.81413 602.2246 205.64648C 601.97015 204.48337 601.1751 203.50627 600.09375 203.00195L600.09375 203.00195L582.9121 195.10156C 581.55817 194.47458 579.936 194.69768 578.791 195.6836C 571.1217 202.31245 562.2578 205.67969 552.4531 205.67969C 542.65753 205.67969 535.21954 203.45677 529.7129 198.89062C 523.85187 194.02463 520.5983 188.94485 519.1035 182.17969L519.1035 182.17969L608.5918 182.17969C 610.70447 182.17969 612.42584 180.4766 612.43945 178.35938L612.43945 178.35938L612.45703 174.5664C 612.45703 154.76614 606.23645 137.06317 595.3867 125.97266C 583.91003 114.24608 569.4212 108.544914 551.0703 108.544914zM692.5293 108.54491C 675.2597 108.54491 661.3121 114.24606 649.8672 125.97265C 638.4177 137.71288 632.85156 152.05746 632.85156 169.82227C 632.85156 187.15544 638.4315 201.18034 649.9219 212.70703C 661.39856 224.22462 675.8598 229.81836 694.1289 229.81836C 705.86914 229.81836 716.0456 227.75517 724.36914 223.69336C 731.37964 220.2767 737.6138 215.31978 742.90234 208.95898C 743.6611 208.03667 743.96075 206.81546 743.6836 205.65234C 743.42914 204.48468 742.6386 203.50627 741.55273 203.00195L741.55273 203.00195L724.36914 195.10156C 723.0061 194.47458 721.3884 194.69768 720.24805 195.6836C 712.5651 202.31245 703.7058 205.67969 693.91016 205.67969C 684.1145 205.67969 676.6765 203.45808 671.15625 198.89648C 665.2952 194.02594 662.0573 188.9403 660.5625 182.17969L660.5625 182.17969L750.0488 182.17969C 752.1661 182.17969 753.8757 180.4766 753.88477 178.35938L753.88477 178.35938L753.91595 174.5664C 753.91595 154.76161 747.6953 137.05408 736.84564 125.97266C 725.3553 114.24608 710.8665 108.544914 692.52924 108.544914zM843.8828 108.54491C 836.9041 108.54491 829.8382 109.93024 823.959 112.46093C 817.1075 115.39599 810.8109 119.51647 806.22656 124.06444L806.22656 124.06444L803.4961 126.24608L791.1914 114.6914L778.2754 114.6914C 776.1627 114.6914 774.4492 116.40488 774.4492 118.51757L774.4492 118.51757L774.4492 268.04492C 774.4492 270.1667 776.1673 271.88477 778.28906 271.88477L778.28906 271.88477L799.64844 271.88477C 801.7702 271.88477 803.4961 270.16342 803.4961 268.0371L803.4961 268.0371L803.4961 212.76172L806.2129 214.82812C 812.0603 220.29843 819.6166 224.06924 824.9551 226.27734C 830.6298 228.62175 836.86194 229.82228 843.47266 229.82228C 858.4932 229.82228 871.12006 224.1513 882.0879 212.50195C 893.02844 200.8844 898.3574 186.78223 898.3574 169.39453C 898.3574 151.73877 893.01526 136.99971 882.4336 125.5957C 871.9746 114.27802 859.00336 108.54492 843.8828 108.54492zM552.51953 132.3535C 559.5255 132.3535 566.25146 134.62431 572.49414 139.0996C 577.9826 143.02966 581.9801 148.77643 584.00195 155.52342L584.00195 155.52342L584.4512 157.40038L519.3633 157.40038L520.03516 155.64647C 523.9152 147.1457 527.4642 141.78917 530.88086 139.26756C 537.05994 134.68324 544.3414 132.3535 552.51953 132.3535zM693.96875 132.3535C 700.97925 132.3535 707.7098 134.61977 713.94336 139.0996C 719.43634 143.02966 723.4384 148.77774 725.4512 155.52928L725.4512 155.52928L725.91016 157.40038L660.8262 157.40038L661.50195 155.64256C 665.3502 147.16454 668.8946 141.80733 672.3203 139.26756C 678.5176 134.68324 685.7906 132.3535 693.96875 132.3535zM838.2578 134.59569C 847.4628 134.59569 855.1766 137.84969 861.2012 144.28319C 867.22577 150.6985 870.29297 159.04364 870.29297 169.08006C 870.29297 179.1892 867.1818 187.6182 861.05273 194.14256C 854.9191 200.67148 847.24475 203.98827 838.2578 203.98827C 828.9983 203.98827 821.2144 200.72586 815.1035 194.31053C 809.0153 187.88158 805.91797 179.35828 805.91797 168.97655C 805.91797 158.79018 809.016 150.4345 815.1133 144.11913C 821.2151 137.79921 828.9983 134.59569 838.2578 134.59569z" stroke="none" fill="#FF5400" fill-rule="nonzero" />
    <path d="M186.11247 175.4411C 173.40451 175.4411 163.1091 165.14569 163.1091 152.43771C 163.1091 151.0974 163.22269 149.78435 163.44986 148.50766L163.44986 148.50766L108.43802 116.83087C 104.43526 120.21118 99.26029 122.25118 93.61281 122.25118C 80.90484 122.25118 70.60489 111.95123 70.60489 99.247795C 70.60489 86.544365 80.90484 76.244415 93.61281 76.244415C 106.320786 76.244415 116.620735 86.544365 116.620735 99.247795C 116.620735 100.71079 116.4708 102.14197 116.20728 103.53226L116.20728 103.53226L171.0192 135.09091C 175.0583 131.56975 180.33777 129.43434 186.11247 129.43434C 198.81136 129.43434 209.11131 139.73428 209.11131 152.43771C 209.11131 165.14569 198.81136 175.4411 186.11247 175.4411M116.33904 205.99112C 116.33904 218.69455 106.04363 228.9945 93.335655 228.9945C 80.63677 228.9945 70.33682 218.69455 70.33682 205.99112C 70.33682 193.28314 80.63678 182.9832 93.33566 182.9832C 99.04675 182.9832 104.26261 185.06863 108.28355 188.51254L108.28355 188.51254L148.38838 165.46373C 150.10126 170.41151 152.7637 174.91861 156.14856 178.77142L156.14856 178.77142L115.97102 201.86568C 116.20728 203.206 116.33904 204.58264 116.33904 205.9911M254.65918 65.60371L145.42607 3.186075C 137.98846 -1.0620248 128.85619 -1.0620248 121.418594 3.186075L121.418594 3.186075L12.19456 65.60371C 4.65247 69.91087 0 77.93456 0 86.61252L0 86.61252L0 213.58318C 0 222.22478 4.61158 230.21667 12.09915 234.53748L12.09915 234.53748L200.13803 343.07544L200.16983 265.98254L254.73642 234.53748C 262.23306 230.21667 266.8492 222.22478 266.8492 213.5741L266.8492 213.5741L266.8492 86.61251C 266.8492 77.93456 262.19675 69.91087 254.6592 65.6037" stroke="none" fill="#FF5400" fill-rule="nonzero" />
</g>
</svg>