<?xml version='1.0' encoding='UTF-8'?>
<svg viewBox="-2.035 -2.0075 32 32" xmlns="http://www.w3.org/2000/svg" xmlns:xlink="http://www.w3.org/1999/xlink">
  <g transform="translate(-10.734, -10.7074)">
    <g transform="matrix(0.0493, 0, 0, 0.0493, 0, 0)">
      <g transform="matrix(1.3333, 0, 0, 1.3333, 0, 0)">
        <path d="M248.12, 162.89C225.538, 162.89 207.229, 181.21 207.229, 203.792C207.229, 226.374 225.538, 244.659 248.12, 244.659C254.038, 244.659 259.663, 243.4129 264.745, 241.1512C264.7294, 240.7684 264.7255, 240.3778 264.7216, 239.995C264.1318, 222.913 274.2528, 206.886 288.6396, 198.261C285.9404, 178.296 268.8236, 162.89 248.1196, 162.89zM377.6, 162.89C356.916, 162.89 339.823, 178.249 337.092, 198.183C347.768, 204.5502 356.072, 215.031 359.315, 227.081C359.6822, 228.3076 359.9869, 229.5654 360.2369, 230.8115C365.3541, 228.7646 370.8229, 227.6201 376.4249, 227.6201C377.503, 227.5967 378.5851, 227.624 379.6632, 227.6513C384.9405, 227.7451 390.0932, 228.8349 394.9292, 230.7411C397.4761, 217.2721 406.3742, 205.2801 418.1282, 198.2331C415.4212, 178.2721 398.3082, 162.8811 377.6082, 162.8811zM499.89, 162.89C480.355, 162.89 464.019, 176.589 459.964, 194.902C473.765, 200.4567 484.909, 212.644 488.796, 227.082C490.4054, 232.4609 490.8898, 238.051 490.3937, 243.559C493.4406, 244.2817 496.6242, 244.6606 499.8898, 244.6606C522.4718, 244.6606 540.7808, 226.3756 540.7808, 203.7936C540.7808, 181.2116 522.4718, 162.8916 499.8898, 162.8916zM312.85, 198.859C290.268, 198.859 271.959, 217.179 271.959, 239.761C271.959, 262.343 290.268, 280.628 312.85, 280.628C318.768, 280.628 324.393, 279.3819 329.475, 277.1202C329.4594, 276.7374 329.4555, 276.3468 329.4516, 275.964C328.8618, 258.878 338.9789, 242.831 353.3696, 234.206C350.6626, 214.245 333.5496, 198.854 312.8496, 198.854zM442.33, 198.859C421.646, 198.859 404.553, 214.218 401.822, 234.152C412.502, 240.5192 420.802, 251 424.045, 263.05C425.4239, 267.6555 425.9825, 272.425 425.7989, 277.155C430.8536, 279.3933 436.4469, 280.6277 442.3339, 280.6277C464.9159, 280.6277 483.2249, 262.3427 483.2249, 239.7607C483.2249, 217.1787 464.9159, 198.8587 442.3339, 198.8587zM377.588, 234.828C355.006, 234.828 336.697, 253.148 336.697, 275.73C336.697, 298.312 355.006, 316.597 377.588, 316.597C400.17, 316.597 418.479, 298.312 418.479, 275.73C418.479, 253.148 400.17, 234.828 377.588, 234.828zM191.898, 250.328C176.832, 250.328 164.625, 260.2616 163.976, 272.808C163.5151, 274.9603 163.269, 277.2416 163.269, 279.6088L163.269, 377.6128C163.269, 390.6478 170.769, 401.1398 180.097, 401.1398C189.425, 401.1398 196.933, 390.6518 196.933, 377.6128L196.933, 297.3938L202.9447, 297.3938L202.9447, 363.2378C202.9447, 365.3003 203.097, 367.3159 203.3939, 369.273C203.1009, 370.8199 202.9447, 372.4175 202.9447, 374.0621L202.9447, 493.6521C202.9447, 506.6871 212.6322, 517.1791 224.6717, 517.1791C236.7112, 517.1791 246.3987, 506.6911 246.3987, 493.6521L246.3987, 444.2071C244.7581, 444.3633 243.094, 444.336 241.4417, 444.0509C230.8797, 441.922 223.5587, 432.0119 221.6137, 421.8519C220.1528, 399.8749 220.934, 377.8169 220.8598, 355.8049C221.516, 339.8949 219.7114, 323.9219 221.5356, 308.0589C222.4614, 294.5239 233.7776, 283.3009 246.6916, 280.2499C259.3826, 278.5272 272.2656, 279.1835 285.0436, 279.1132C275.4342, 272.289 268.5986, 261.8042 265.9346, 250.3282L191.8956, 250.3282zM489.268, 250.328C486.5453, 261.789 479.6742, 272.324 470.092, 279.113C471.7951, 279.1403 473.5022, 279.1208 475.2053, 279.113C487.0103, 279.6403 498.9473, 277.8396 510.6463, 279.9997C523.7513, 282.0192 535.2943, 292.6907 537.4743, 305.8977C539.029, 331.6167 538.2087, 357.4177 538.2946, 383.1707C537.7282, 395.0067 539.2868, 406.9047 537.8805, 418.7017C537.0953, 428.9437 531.0016, 439.4207 521.0445, 443.0687C515.9781, 445.1429 510.3645, 444.5296 505.5565, 442.2015L505.5565, 493.6465C505.5565, 506.6815 515.2557, 517.1815 527.2945, 517.1815C539.3335, 517.1815 549.0215, 506.6815 549.0215, 493.6465L549.0215, 374.0665C549.0215, 372.4181 548.8692, 370.8087 548.5723, 369.254C548.8653, 367.3048 549.0215, 365.2931 549.0215, 363.2423L549.0215, 297.3873L555.0332, 297.3873L555.0332, 377.6173C555.0332, 390.6523 562.5332, 401.1443 571.8612, 401.1443C581.1892, 401.1443 588.6972, 390.6563 588.6972, 377.6173L588.6972, 279.6133C588.6972, 277.2383 588.4433, 274.9492 587.9784, 272.7891C587.3182, 260.2541 575.1264, 250.3201 560.0684, 250.3201L489.2674, 250.3201zM256.648, 286.297C241.582, 286.297 229.375, 296.2306 228.726, 308.777C228.2651, 310.9293 228.019, 313.2106 228.019, 315.5778L228.019, 413.5818C228.019, 426.6168 235.519, 437.1088 244.847, 437.1088C254.175, 437.1088 261.683, 426.6208 261.683, 413.5818L261.683, 333.3628L267.6947, 333.3628L267.6947, 399.2068C267.6947, 401.2693 267.847, 403.2849 268.1439, 405.242C267.8509, 406.7889 267.6947, 408.3865 267.6947, 410.0311L267.6947, 529.6211C267.6947, 542.6561 277.3822, 553.1481 289.4217, 553.1481C301.4607, 553.1481 311.1487, 542.6601 311.1487, 529.6211L311.1487, 480.1761C309.5159, 480.3284 307.8518, 480.3011 306.1995, 480.012C295.6375, 477.887 288.3125, 467.973 286.3715, 457.813C284.9106, 435.84 285.6918, 413.782 285.6176, 391.77C286.2738, 375.86 284.4692, 359.887 286.2934, 344.024C287.2192, 330.489 298.5354, 319.27 311.4494, 316.215C324.1404, 314.4923 337.0234, 315.1486 349.8014, 315.0783C340.192, 308.2541 333.3444, 297.7693 330.6804, 286.2933zM424.528, 286.297C421.8053, 297.758 414.9342, 308.293 405.352, 315.082C407.0551, 315.1093 408.7622, 315.0898 410.4653, 315.082C422.2703, 315.6093 434.2073, 313.8086 445.9063, 315.9687C459.0113, 317.9882 470.5543, 328.6597 472.7343, 341.8667C474.289, 367.5857 473.4687, 393.3867 473.5546, 419.1397C472.9882, 430.9757 474.5468, 442.8737 473.1405, 454.6707C472.3553, 464.9127 466.2616, 475.3897 456.3045, 479.0377C453.6248, 480.1354 450.7967, 480.4791 448.0076, 480.2174L448.0076, 529.6154C448.0076, 542.6504 457.7068, 553.1504 469.7456, 553.1504C481.7846, 553.1504 491.4726, 542.6504 491.4726, 529.6154L491.4726, 410.0354C491.4726, 408.387 491.3203, 406.7776 491.0234, 405.2229C491.3164, 403.2737 491.4726, 401.262 491.4726, 399.2112L491.4726, 333.3562L497.4843, 333.3562L497.4843, 413.5862C497.4843, 426.6212 504.9843, 437.1132 514.3123, 437.1132C523.6403, 437.1132 531.1483, 426.6252 531.1483, 413.5862L531.1483, 315.5822C531.1483, 313.2072 530.8944, 310.9181 530.4295, 308.758C529.7693, 296.223 517.5775, 286.289 502.5195, 286.289L424.5235, 286.289zM321.388, 322.266C306.322, 322.266 294.115, 332.1996 293.466, 344.746C293.0051, 346.8983 292.759, 349.1796 292.759, 351.5468L292.759, 449.5508C292.759, 462.5858 300.259, 473.0778 309.587, 473.0778C318.915, 473.0778 326.423, 462.5898 326.423, 449.5508L326.423, 369.3318L332.4347, 369.3318L332.4347, 435.1758C332.4347, 437.2383 332.587, 439.2539 332.8839, 441.211C332.5909, 442.7579 332.4347, 444.3555 332.4347, 446.0001L332.4347, 565.5901C332.4347, 578.6251 342.1222, 589.1171 354.1617, 589.1171C366.2012, 589.1171 375.8887, 578.6291 375.8887, 565.5901L375.8887, 469.3751L383.2637, 469.3751L383.2637, 565.5901C383.2637, 578.6251 392.9629, 589.1171 405.0017, 589.1171C417.0407, 589.1171 426.7287, 578.6291 426.7287, 565.5901L426.7287, 446.0001C426.7287, 444.3517 426.5764, 442.7423 426.2795, 441.1876C426.5725, 439.2384 426.7287, 437.2267 426.7287, 435.1759L426.7287, 369.3319L432.7404, 369.3319L432.7404, 449.5509C432.7404, 462.5859 440.2404, 473.0779 449.5684, 473.0779C458.8964, 473.0779 466.4044, 462.5899 466.4044, 449.5509L466.4044, 351.5469C466.4044, 349.1719 466.1505, 346.8828 465.6856, 344.7227C465.0254, 332.1877 452.8336, 322.2657 437.7756, 322.2657L321.3856, 322.2657zM260.548, 437.136C258.6222, 439.1594 256.3136, 440.843 253.7824, 442.0813L253.7824, 493.6513C253.7824, 500.374 256.3644, 506.4093 260.5168, 510.6903C260.2121, 486.1743 260.677, 461.6513 260.548, 437.1353zM433.938, 473.038C433.9419, 497.581 433.9224, 522.12 433.9068, 546.659C438.0552, 542.3778 440.6412, 536.343 440.6412, 529.62L440.6412, 478.073C438.1139, 476.823 435.8131, 475.0964 433.942, 473.0378zM325.298, 473.1044C323.3722, 475.1239 321.0597, 476.8114 318.5324, 478.0497L318.5324, 529.6197C318.5324, 536.3502 321.1183, 542.3897 325.2746, 546.6707C324.966, 522.1507 325.423, 497.6237 325.298, 473.1047z" fill="#FFB115" class="Yellow" />
      </g>
    </g>
  </g>
</svg>