<?xml version="1.0" encoding="UTF-8"?>
<svg width="64pt" height="64pt" version="1.1" viewBox="0 0 700 700" xmlns="http://www.w3.org/2000/svg" xmlns:xlink="http://www.w3.org/1999/xlink">



	<g transform="matrix(1, 0, 0, 1,0, 0)">
		<path d="m377.15 327.94 20.703-20.703c1.5273-1.5273 1.6953-3.9883 0.33984-5.6836l-12.559-15.527c-5.5156-6.7891-6.2773-16.035-2.1211-23.586 5.6836-10.266 10.098-21.211 13.066-32.582 2.207-8.4844 9.5039-14.762 18.242-15.695l20.449-2.1211c2.207-0.25391 3.8164-2.0352 3.8164-4.2422v-29.359c0-2.207-1.6133-3.9883-3.8164-4.2422l-21.805-2.2891c-8.5703-0.93359-15.695-6.8711-18.074-15.102-3.1406-10.691-7.5508-21.043-13.152-30.715-4.4141-7.5508-3.6484-17.141 1.8672-23.926l14.086-17.48c1.3594-1.6953 1.2734-4.1562-0.33984-5.6836l-20.703-20.965c-1.5273-1.5273-3.9883-1.6953-5.6836-0.33984l-18.156 14.68c-6.7891 5.4297-16.035 6.2773-23.586 2.0352-9.418-5.2617-19.43-9.332-29.867-12.219-8.3984-2.2891-14.508-9.418-15.441-18.156l-2.4609-23.418c-0.25391-2.207-2.0352-3.8164-4.2422-3.8164h-29.359c-2.207 0-3.9883 1.6133-4.2422 3.8164l-2.5469 23.504c-0.93359 8.7383-6.957 15.867-15.359 18.156-10.352 2.8867-20.449 6.957-29.953 12.219-7.5508 4.2422-16.801 3.3945-23.586-2.0352l-18.242-14.68c-1.6953-1.3594-4.1562-1.2734-5.6836 0.33984l-20.789 20.703c-1.5273 1.6133-1.6992 4.0742-0.25781 5.7695l13.746 17.055c5.6836 7.043 6.3633 16.801 1.6133 24.352-4.9219 7.8906-9.25 18.414-12.641 30.547-2.2891 8.3984-9.418 14.426-18.156 15.359l-21.723 2.2891c-2.207 0.25391-3.8164 2.0352-3.8164 4.2422v29.359c0 2.207 1.6133 3.9883 3.8164 4.2422l20.449 2.1211c8.7383 0.93359 16.121 7.2109 18.242 15.695 2.9688 11.371 7.2969 22.316 13.066 32.582 4.2422 7.5508 3.3945 16.801-2.1211 23.586l-12.477 15.441c-1.3594 1.6953-1.2734 4.1562 0.33984 5.6836l20.703 20.703c1.5273 1.5273 3.9883 1.6953 5.6836 0.33984l14.762-11.965c3.9023-3.1406 8.6562-4.75 13.406-4.75 3.6484 0 7.3828 0.93359 10.605 2.8867 10.438 6.1953 21.723 10.859 33.43 14.086 8.3164 2.2891 14.508 9.5859 15.359 18.156l1.9531 18.582c0.25391 2.207 2.0352 3.8164 4.2422 3.8164h29.359c2.207 0 3.9883-1.6133 4.2422-3.8164l1.9531-18.668c0.93359-8.6562 7.1289-15.953 15.441-18.242 11.711-3.1406 22.91-7.8906 33.344-14 7.5508-4.4141 17.141-3.7344 24.012 1.8672l14.762 11.965c1.7852 1.5273 4.2461 1.3555 5.8594-0.17188zm-114.21-61.258c-40.641 0-73.648-33.008-73.648-73.648s33.09-73.648 73.648-73.648c40.559 0 73.648 33.09 73.648 73.648 0.085938 40.555-33.008 73.648-73.648 73.648z"
			  style="fill: rgb(255, 69, 0);"></path>
	</g>
</svg>
